<svg width="40" height="40" viewBox="0 0 40 40" fill="none" xmlns="http://www.w3.org/2000/svg">
<path d="M30.5469 31.6719H13.6719C13.0903 31.6719 12.6172 31.1987 12.6172 30.6172C12.6172 30.0356 13.0903 29.5625 13.6719 29.5625H33.1705L38 12.6875H33.9219V8.46875H27.3828V2H12.6172V12.6875H10.8625L10.4161 10.8746L10.4154 10.8748C10.0748 9.4951 8.82713 8.46875 7.34375 8.46875H5.16406C3.4194 8.46875 2 9.88815 2 11.6328H4.10938C4.10938 11.0513 4.58251 10.5781 5.16406 10.5781H7.34375C7.9253 10.5781 8.39844 11.0513 8.39844 11.6328H8.4305L12.3927 27.7242C11.2836 28.2166 10.5078 29.3277 10.5078 30.6172C10.5078 32.3619 11.9272 33.7812 13.6719 33.7812H14.908C14.7909 34.1114 14.7266 34.4662 14.7266 34.8359C14.7266 36.5806 16.146 38 17.8906 38C19.6353 38 21.0547 36.5806 21.0547 34.8359C21.0547 34.4662 20.9904 34.1114 20.8733 33.7812H27.5643C27.4472 34.1114 27.3829 34.4662 27.3829 34.8359C27.3829 36.5806 28.8023 38 30.5469 38C32.2916 38 33.711 36.5806 33.711 34.8359C33.711 33.0913 32.2915 31.6719 30.5469 31.6719ZM31.8477 10.5781V12.6875H27.3828V10.5781H31.8477ZM14.7266 4.10938H25.2734V12.6875H14.7266V4.10938ZM35.2036 14.7969L31.5795 27.4531H14.4984L11.382 14.7969H35.2036ZM18.9453 34.8359C18.9453 35.4175 18.4722 35.8906 17.8906 35.8906C17.3091 35.8906 16.8359 35.4175 16.8359 34.8359C16.8359 34.2544 17.3091 33.7812 17.8906 33.7812C18.4722 33.7812 18.9453 34.2544 18.9453 34.8359ZM30.5469 35.8906C29.9653 35.8906 29.4922 35.4175 29.4922 34.8359C29.4922 34.2544 29.9653 33.7812 30.5469 33.7812C31.1284 33.7812 31.6016 34.2544 31.6016 34.8359C31.6016 35.4175 31.1284 35.8906 30.5469 35.8906Z" fill="#5C3635"/>
<path d="M21.0547 6.35938V7.41406C21.0547 7.99562 20.5816 8.46875 20 8.46875C19.4184 8.46875 18.9453 7.99562 18.9453 7.41406V6.35938H16.8359V7.41406C16.8359 9.15873 18.2553 10.5781 20 10.5781C21.7447 10.5781 23.1641 9.15873 23.1641 7.41406V6.35938H21.0547Z" fill="#5C3635"/>
</svg>
