<svg width="40" height="40" viewBox="0 0 40 40" fill="none" xmlns="http://www.w3.org/2000/svg">
<path fill-rule="evenodd" clip-rule="evenodd" d="M9.05589 7.51836C10.1478 7.06606 11.3182 6.83326 12.5001 6.83326C13.682 6.83326 14.8523 7.06606 15.9442 7.51836C17.0362 7.97066 18.0283 8.6336 18.8641 9.46934C18.8641 9.46934 18.8641 9.46934 18.8641 9.46934L20.0001 10.6053L21.1361 9.46933C22.8239 7.7815 25.1131 6.83328 27.5001 6.83328C29.887 6.83328 32.1762 7.7815 33.8641 9.46933C35.5519 11.1572 36.5001 13.4464 36.5001 15.8333C36.5001 18.2203 35.5519 20.5095 33.8641 22.1973L21.0607 35.0007C20.4749 35.5864 19.5252 35.5864 18.9394 35.0007L6.13608 22.1973C6.13608 22.1973 6.13607 22.1973 6.13607 22.1973C5.30034 21.3616 4.63739 20.3694 4.18509 19.2775C3.7328 18.1856 3.5 17.0152 3.5 15.8333C3.5 14.6514 3.7328 13.4811 4.18509 12.3892C4.63739 11.2972 5.30033 10.3051 6.13606 9.46934C6.13607 9.46934 6.13607 9.46933 6.13608 9.46933M9.05589 7.51836C7.96396 7.97065 6.9718 8.6336 6.13608 9.46933L9.05589 7.51836ZM12.5001 9.83326C11.7121 9.83326 10.9319 9.98846 10.2039 10.29C9.47599 10.5915 8.81455 11.0335 8.2574 11.5906L8.25739 11.5907C7.70023 12.1478 7.25826 12.8093 6.95673 13.5372C6.6552 14.2652 6.5 15.0454 6.5 15.8333C6.5 16.6213 6.6552 17.4015 6.95673 18.1294C7.25826 18.8574 7.70023 19.5188 8.25739 20.076L8.25739 20.076L20.0001 31.8187L31.7427 20.076C32.868 18.9508 33.5001 17.4246 33.5001 15.8333C33.5001 14.242 32.868 12.7159 31.7427 11.5907C30.6175 10.4654 29.0914 9.83328 27.5001 9.83328C25.9088 9.83328 24.3826 10.4654 23.2574 11.5907L21.0607 13.7873C20.7794 14.0686 20.3979 14.2267 20.0001 14.2267C19.6022 14.2267 19.2207 14.0686 18.9394 13.7873L16.7427 11.5907L16.7427 11.5906C16.1856 11.0335 15.5241 10.5915 14.7962 10.29C14.0682 9.98846 13.288 9.83326 12.5001 9.83326Z" fill="#5C3635"/>
</svg>
