<svg width="24" height="24" viewBox="0 0 24 24" fill="none" xmlns="http://www.w3.org/2000/svg">
<path d="M0.686211 2.49391L0.725857 2.46914L5.7377 0L11.1472 7.2126L8.65841 10.5312C8.73288 11.7827 9.26361 12.9635 10.1501 13.85C11.0367 14.7365 12.2174 15.2672 13.469 15.3417L16.7875 12.8529L24 18.2622L21.5514 23.2322L21.5308 23.2741L21.506 23.3137C21.3753 23.5243 21.1929 23.6979 20.9762 23.818C20.7595 23.9381 20.5156 24.0008 20.2678 24H18.9746C16.4828 24 14.0154 23.5092 11.7133 22.5556C9.41119 21.6021 7.31945 20.2044 5.5575 18.4425C3.79555 16.6805 2.3979 14.5888 1.44434 12.2867C0.490786 9.98455 -1.90735e-06 7.51717 5.72205e-06 5.02539V3.7321C-0.000787735 3.48431 0.0618572 3.24044 0.181971 3.0237C0.302086 2.80697 0.475674 2.62458 0.686211 2.49391ZM1.85211 5.02539C1.85211 14.4668 9.53324 22.1479 18.9746 22.1479H20.021L21.6593 18.822L16.7871 15.1679L14.0745 17.2023H13.7659C11.9183 17.2002 10.1471 16.4653 8.84065 15.1589C7.53425 13.8525 6.7994 12.0813 6.79733 10.2337V9.92506L8.83169 7.21255L5.17796 2.34065L1.85211 3.97924V5.02539Z" fill="white"/>
</svg>
