<svg width="18" height="18" viewBox="0 0 18 18" fill="none" xmlns="http://www.w3.org/2000/svg">
<path d="M17.1192 9.27583L9.61923 0.942491C9.3034 0.590825 8.69673 0.590825 8.3809 0.942491L0.880901 9.27583C0.772948 9.39549 0.702088 9.54394 0.676938 9.70312C0.651788 9.86231 0.67343 10.0254 0.739234 10.1725C0.872568 10.4733 1.1709 10.6667 1.50007 10.6667H3.16673V16.5C3.16673 16.721 3.25453 16.933 3.41081 17.0892C3.56709 17.2455 3.77905 17.3333 4.00007 17.3333H6.50007C6.72108 17.3333 6.93304 17.2455 7.08932 17.0892C7.2456 16.933 7.3334 16.721 7.3334 16.5V13.1667H10.6667V16.5C10.6667 16.721 10.7545 16.933 10.9108 17.0892C11.0671 17.2455 11.2791 17.3333 11.5001 17.3333H14.0001C14.2211 17.3333 14.433 17.2455 14.5893 17.0892C14.7456 16.933 14.8334 16.721 14.8334 16.5V10.6667H16.5001C16.6615 10.6673 16.8196 10.6211 16.9551 10.5334C17.0906 10.4458 17.1978 10.3207 17.2634 10.1732C17.329 10.0258 17.3503 9.86244 17.3248 9.7031C17.2992 9.54375 17.2277 9.39529 17.1192 9.27583Z" fill="#5C3635"/>
</svg>
