<svg width="32" height="32" viewBox="0 0 32 32" fill="none" xmlns="http://www.w3.org/2000/svg">
<path d="M0.914948 3.32522L0.96781 3.29219L7.65027 0L14.8629 9.61681L11.5445 14.0416C11.6438 15.7102 12.3515 17.2846 13.5335 18.4666C14.7155 19.6486 16.2899 20.3563 17.9586 20.4555L22.3833 17.1372L32 24.3497L28.7352 30.9762L28.7077 31.0322L28.6746 31.085C28.5004 31.3657 28.2572 31.5972 27.9682 31.7573C27.6793 31.9175 27.3541 32.001 27.0237 32H25.2994C21.977 32 18.6872 31.3456 15.6177 30.0742C12.5483 28.8028 9.75927 26.9392 7.41 24.5899C5.06073 22.2407 3.1972 19.4517 1.92579 16.3822C0.654381 13.3127 0 10.0229 7.62939e-06 6.70052V4.97613C-0.00104904 4.64574 0.0824757 4.32058 0.242628 4.0316C0.402781 3.74263 0.634232 3.49945 0.914948 3.32522ZM2.46948 6.70052C2.46948 19.289 12.711 29.5305 25.2994 29.5305H26.6947L28.8791 25.0961L22.3828 20.2239L18.766 22.9363H18.3545C15.8911 22.9336 13.5294 21.9538 11.7875 20.2119C10.0457 18.47 9.06587 16.1084 9.06311 13.645V13.2334L11.7756 9.61673L6.90395 3.12087L2.46948 5.30565V6.70052Z" fill="#5C3635"/>
</svg>
