<svg width="40" height="40" viewBox="0 0 40 40" fill="none" xmlns="http://www.w3.org/2000/svg">
<path fill-rule="evenodd" clip-rule="evenodd" d="M26.9201 24.6375L35.5277 33.2454C35.8303 33.5481 36.0001 33.9587 36 34.3867C35.9998 34.8147 35.8297 35.2252 35.5269 35.5277C35.2242 35.8303 34.8136 36.0001 34.3856 36C33.9576 35.9998 33.5472 35.8297 33.2446 35.5269L24.637 26.9191C22.0639 28.9121 18.8281 29.85 15.5881 29.542C12.348 29.234 9.34691 27.7031 7.19541 25.2609C5.04391 22.8187 3.90358 19.6486 4.00639 16.3954C4.10921 13.1422 5.44744 10.0504 7.74886 7.74896C10.0503 5.44748 13.142 4.10921 16.3951 4.00639C19.6482 3.90358 22.8182 5.04394 25.2604 7.19549C27.7025 9.34705 29.2333 12.3482 29.5414 15.5883C29.8494 18.8285 28.9115 22.0643 26.9185 24.6375H26.9201ZM16.8006 26.3991C19.3466 26.3991 21.7882 25.3877 23.5885 23.5874C25.3888 21.7871 26.4001 19.3453 26.4001 16.7993C26.4001 14.2533 25.3888 11.8115 23.5885 10.0112C21.7882 8.21093 19.3466 7.19952 16.8006 7.19952C14.2546 7.19952 11.813 8.21093 10.0127 10.0112C8.21242 11.8115 7.20104 14.2533 7.20104 16.7993C7.20104 19.3453 8.21242 21.7871 10.0127 23.5874C11.813 25.3877 14.2546 26.3991 16.8006 26.3991Z" fill="#5C3635"/>
</svg>
