<svg width="32" height="32" viewBox="0 0 32 32" fill="none" xmlns="http://www.w3.org/2000/svg">
<path d="M17.0343 5.3H14.901V17.1741L22.6085 20.8373L23.5243 18.9105L17.0343 15.8259V5.3Z" fill="#5C3635"/>
<path d="M16 0C7.16347 0 0 7.16347 0 16C0 24.8365 7.16347 32 16 32C24.8365 32 32 24.8365 32 16C32 7.16347 24.8365 0 16 0ZM16 29.8667C8.34167 29.8667 2.13333 23.6583 2.13333 16C2.13333 8.34167 8.34167 2.13333 16 2.13333C23.6583 2.13333 29.8667 8.34167 29.8667 16C29.8667 23.6583 23.6583 29.8667 16 29.8667Z" fill="#5C3635"/>
</svg>
