<svg width="64" height="64" viewBox="0 0 64 64" fill="none" xmlns="http://www.w3.org/2000/svg">
<path d="M57.816 61C57.928 60.686 58 60.352 58 60C58 59.648 57.928 59.314 57.816 59H60V57H58V52C58 51.447 57.553 51 57 51H54V46C54 45.447 53.553 45 53 45H52V32C52 31.447 51.553 31 51 31H13C12.447 31 12 31.447 12 32V61H8V24.293L32 9.18204L56 24.294V49H58V25.553L58.467 25.847C58.632 25.95 58.816 26 58.999 26C59.305 26 59.604 25.86 59.8 25.6L62.8 21.6C62.968 21.377 63.034 21.094 62.984 20.82C62.934 20.546 62.771 20.305 62.536 20.156L32.536 1.15604C32.21 0.949043 31.792 0.949043 31.466 1.15604L1.466 20.156C1.231 20.305 1.068 20.546 1.018 20.82C0.966 21.094 1.032 21.377 1.2 21.6L4.2 25.6C4.512 26.017 5.092 26.124 5.533 25.847L6 25.553V61H1V63H63V61H57.816ZM5.247 23.663L3.449 21.266L32 3.18404L60.551 21.266L58.753 23.663L32.533 7.15304C32.37 7.05104 32.185 7.00004 32 7.00004C31.815 7.00004 31.63 7.05104 31.467 7.15304L5.247 23.663ZM56 60C56 60.552 55.552 61 55 61C54.448 61 54 60.552 54 60C54 59.448 54.448 59 55 59C55.552 59 56 59.448 56 60ZM44 60C44 59.448 44.448 59 45 59C45.552 59 46 59.448 46 60C46 60.552 45.552 61 45 61C44.448 61 44 60.552 44 60ZM42 53H44V55H46V53H48V57H42V53ZM47.816 59H52.185C52.072 59.314 52 59.648 52 60C52 60.352 52.072 60.686 52.184 61H47.815C47.928 60.686 48 60.352 48 60C48 59.648 47.928 59.314 47.816 59ZM56 57H50V53H52V55H54V53H56V57ZM46 51V47H48V49H50V47H52V51H46ZM45 45C44.447 45 44 45.447 44 46V51H42V44C42 43.447 41.553 43 41 43H37V45H40V58C40 58.553 40.447 59 41 59H42.184C42.072 59.314 42 59.648 42 60C42 60.352 42.072 60.686 42.184 61H38V56C38 55.447 37.553 55 37 55H30V50C30 49.447 29.553 49 29 49H22V44C22 43.447 21.553 43 21 43H14V41H50V45H45ZM14 55V51H16V53H18V51H20V55H14ZM18 47V45H20V49H14V45H16V47H18ZM26 53V51H28V55H22V51H24V53H26ZM22 57H24V59H26V57H28V61H22V57ZM30 57H32V59H34V57H36V61H30V57ZM50 39H14V37H50V39ZM50 33V35H14V33H50ZM14 57H16V59H18V57H20V61H14V57Z" fill="#5C3635"/>
<path d="M20 21C19.447 21 19 21.447 19 22V28C19 28.553 19.447 29 20 29H44C44.553 29 45 28.553 45 28V22C45 21.447 44.553 21 44 21H20ZM43 27H21V23H43V27Z" fill="#5C3635"/>
</svg>
