<svg width="64" height="64" viewBox="0 0 64 64" fill="none" xmlns="http://www.w3.org/2000/svg">
<path d="M1.8745 56.1284H62.1256V50.0943C42.042 50.0943 21.9583 50.0943 1.8745 50.0943V56.1284ZM6.67925 37.9335C6.67925 37.416 7.09737 36.9944 7.61475 36.9944C8.13562 36.9944 8.55375 37.416 8.55375 37.9335V39.5705C8.55375 40.0879 8.13562 40.5095 7.61475 40.5095C7.09737 40.5095 6.67925 40.0879 6.67925 39.5705V37.9335ZM13.9607 43.8189C13.9607 43.3017 14.3789 42.8799 14.8962 42.8799C15.4135 42.8799 15.8352 43.3017 15.8352 43.8189V45.456C15.8352 45.9734 15.4136 46.395 14.8962 46.395C14.3789 46.395 13.9607 45.9734 13.9607 45.456V43.8189ZM13.9607 37.9335C13.9607 37.416 14.3789 36.9944 14.8962 36.9944C15.4135 36.9944 15.8352 37.416 15.8352 37.9335V39.5705C15.8352 40.0879 15.4136 40.5095 14.8962 40.5095C14.3789 40.5095 13.9607 40.0879 13.9607 39.5705V37.9335ZM10.3182 43.8189C10.3182 43.3017 10.74 42.8799 11.2572 42.8799C11.7746 42.8799 12.1927 43.3017 12.1927 43.8189V45.456C12.1927 45.9734 11.7746 46.395 11.2572 46.395C10.74 46.395 10.3182 45.9734 10.3182 45.456V43.8189ZM10.3182 37.9335C10.3182 37.416 10.74 36.9944 11.2572 36.9944C11.7746 36.9944 12.1927 37.416 12.1927 37.9335V39.5705C12.1927 40.0879 11.7746 40.5095 11.2572 40.5095C10.74 40.5095 10.3182 40.0879 10.3182 39.5705V37.9335ZM6.67925 43.8189C6.67925 43.3017 7.09737 42.8799 7.61475 42.8799C8.13562 42.8799 8.55375 43.3017 8.55375 43.8189V45.456C8.55375 45.9734 8.13562 46.395 7.61475 46.395C7.09737 46.395 6.67925 45.9734 6.67925 45.456V43.8189ZM54.5605 14.852V12.6339C54.5605 11.3264 54.0255 10.1323 53.1609 9.27128C52.2962 8.40678 51.1058 7.86815 49.7946 7.86815H46.0741C44.763 7.86815 43.5725 8.40678 42.7079 9.27128C41.8433 10.1324 41.3083 11.3264 41.3083 12.6339V14.852C42.7751 15.061 44.0897 15.7484 45.0925 16.7478C46.0917 17.7504 46.7791 19.0685 46.9881 20.532H48.8802C49.0892 19.0685 49.7766 17.7504 50.7795 16.7478C51.779 15.7484 53.0971 15.061 54.5605 14.852ZM40.3694 9.2429C40.6529 8.76803 40.993 8.33228 41.3828 7.94253C42.5875 6.7414 44.2457 5.99365 46.0741 5.99365H49.7946C51.623 5.99365 53.2849 6.74128 54.486 7.94253C55.6908 9.14728 56.4384 10.8092 56.4384 12.6339V14.852C57.9017 15.061 59.2199 15.7484 60.2191 16.7478C61.2574 17.786 61.9555 19.1572 62.1361 20.6808C62.5365 20.8189 62.898 21.0458 63.192 21.3399C63.6916 21.8394 63.9999 22.5303 63.9999 23.2887C63.9999 24.047 63.6916 24.7343 63.192 25.2339C62.9085 25.5174 62.5649 25.7407 62.1821 25.8788V30.2337C62.1821 30.7509 61.764 31.1727 61.2467 31.1727C60.7294 31.1727 60.3078 30.7509 60.3078 30.2337V26.0418H50.6911V38.6704H60.3078V34.4785C60.3078 33.9612 60.7294 33.5432 61.2467 33.5432C61.7641 33.5432 62.1821 33.9613 62.1821 34.4785V38.8333C62.5648 38.9752 62.9085 39.1949 63.192 39.4783C63.6916 39.9778 63.9999 40.6653 63.9999 41.427C63.9999 42.1853 63.6916 42.8727 63.192 43.3723C62.9085 43.6558 62.5649 43.8754 62.1821 44.0172V48.2195H63.0644C63.5818 48.2195 63.9999 48.6413 63.9999 49.1587V57.0673C63.9999 57.5847 63.5818 58.0063 63.0644 58.0063H0.939C0.421625 58.0063 0 57.5847 0 57.0673V49.1587C0 48.6413 0.421625 48.2195 0.939 48.2195H3.04025V35.1695H0.939C0.421625 35.1695 0 34.7514 0 34.2341V30.5915C0 30.0742 0.421625 29.6562 0.939 29.6562H8.06825C8.58562 29.6562 9.00362 30.0743 9.00362 30.5915C9.00362 31.1089 8.5855 31.5305 8.06825 31.5305H1.8745V33.2952H18.507V31.5305H12.3132C11.796 31.5305 11.3779 31.1089 11.3779 30.5915C11.3779 30.0742 11.796 29.6562 12.3132 29.6562H18.5566V25.8789C18.1739 25.7408 17.8302 25.5174 17.5504 25.234C17.0508 24.7344 16.7389 24.047 16.7389 23.2888C16.7389 22.5305 17.0508 21.8395 17.5504 21.34C17.8444 21.0458 18.2024 20.819 18.6064 20.6809C18.787 19.1573 19.4851 17.7862 20.5198 16.7479C21.5225 15.7485 22.8371 15.0612 24.3041 14.8522V12.634C24.3041 10.8092 25.0518 9.14728 26.2529 7.94265C27.4576 6.74153 29.1194 5.99378 30.9443 5.99378H34.6683C36.4931 5.99378 38.155 6.7414 39.3596 7.94265C39.7458 8.33228 40.0859 8.76815 40.3694 9.2429ZM39.4339 14.852V12.6339C39.4339 11.3264 38.8952 10.1323 38.0308 9.27128C37.1698 8.40678 35.9756 7.86815 34.6681 7.86815H30.9441C29.6366 7.86815 28.4425 8.40678 27.5815 9.27128C26.7169 10.1324 26.1784 11.3264 26.1784 12.6339V14.852C27.6453 15.061 28.9599 15.7484 29.9626 16.7478C30.9654 17.7504 31.6528 19.0685 31.8582 20.532H33.7539C33.9595 19.0685 34.6467 17.7504 35.6496 16.7478C36.6524 15.7484 37.967 15.061 39.4339 14.852ZM48.8167 44.1803H47.0558V48.2197H48.8167V44.1803ZM33.6866 44.1803H31.9256V48.2197H33.6866V44.1803ZM18.5565 44.0174C18.1737 43.8757 17.8301 43.6559 17.5502 43.3725C17.0506 42.8729 16.7388 42.1855 16.7388 41.4273C16.7388 40.6655 17.0506 39.978 17.5502 39.4785C17.8301 39.1952 18.1739 38.9754 18.5565 38.8335V35.1697H4.91463V48.2198H18.5565V44.0174ZM31.9256 38.6705H33.6866V26.0419H31.9256V30.2338C31.9256 30.751 31.5075 31.1728 30.9866 31.1728C30.4692 31.1728 30.0511 30.751 30.0511 30.2338V26.0419H20.4345V38.6705H30.0511V34.4787C30.0511 33.9613 30.4692 33.5433 30.9866 33.5433C31.5075 33.5433 31.9256 33.9614 31.9256 34.4787V38.6705ZM47.0558 38.6705H48.8167V26.0419H47.0558V30.2338C47.0558 30.751 46.634 31.1728 46.1167 31.1728C45.5995 31.1728 45.1777 30.751 45.1777 30.2338V26.0419H35.5611V38.6705H45.1777V34.4787C45.1777 33.9613 45.5995 33.5433 46.1167 33.5433C46.6341 33.5433 47.0558 33.9614 47.0558 34.4787V38.6705ZM61.2469 42.3059C61.4879 42.3059 61.7075 42.2066 61.8669 42.0473C62.0264 41.8879 62.1255 41.6682 62.1255 41.4272C62.1255 41.1828 62.0264 40.963 61.8669 40.8036C61.7075 40.6441 61.4878 40.5449 61.2469 40.5449C47.3286 40.5449 33.4137 40.5449 19.4956 40.5449C19.2546 40.5449 19.035 40.6441 18.8755 40.8036C18.7124 40.963 18.6133 41.1863 18.6133 41.4272C18.6133 41.668 18.7124 41.8879 18.8755 42.0473C19.0349 42.2066 19.2546 42.3059 19.4956 42.3059H61.2469ZM61.2469 24.1675C61.4879 24.1675 61.7075 24.0683 61.8669 23.9089C62.0264 23.7495 62.1255 23.5298 62.1255 23.2888C62.1255 23.0478 62.0264 22.8282 61.8669 22.6687C61.7075 22.5057 61.4878 22.4064 61.2469 22.4064C47.3286 22.4064 33.4137 22.4064 19.4956 22.4064C19.2546 22.4064 19.035 22.5057 18.8755 22.6687C18.7124 22.8282 18.6133 23.0478 18.6133 23.2888C18.6133 23.5298 18.7124 23.7495 18.8755 23.9089C19.0349 24.0683 19.2546 24.1675 19.4956 24.1675H61.2469ZM50.6911 44.1803V48.2197H60.3078V44.1803H50.6911ZM52.105 18.073C51.4424 18.7357 50.9711 19.586 50.7834 20.5322H60.2158C60.0245 19.586 59.5568 18.7357 58.8941 18.073C58.0225 17.2013 56.8213 16.6628 55.4996 16.6628C54.1777 16.6628 52.9766 17.2013 52.105 18.073ZM20.4345 44.1803V48.2197H30.0511V44.1803H20.4345ZM21.8447 18.073C21.1857 18.7357 20.7145 19.586 20.5268 20.5322H29.9591C29.7677 19.586 29.2965 18.7357 28.6374 18.073C27.7657 17.2013 26.5645 16.6628 25.2429 16.6628C23.9211 16.6628 22.7164 17.2013 21.8447 18.073ZM35.5611 44.1803V48.2197H45.1777V44.1803H35.5611ZM36.9749 18.073C36.3159 18.7357 35.8446 19.586 35.6533 20.5322H45.0856C44.8978 19.586 44.4266 18.7357 43.7675 18.073C42.8923 17.2013 41.6911 16.6628 40.3694 16.6628C39.0476 16.6628 37.8465 17.2013 36.9749 18.073Z" fill="#5C3635"/>
</svg>
