<svg width="64" height="64" viewBox="0 0 64 64" fill="none" xmlns="http://www.w3.org/2000/svg">
<g clip-path="url(#clip0)">
<path d="M19.2818 52.6078C19.4286 52.1708 19.2781 51.6891 18.9083 51.4135L10.375 45.0135C9.99583 44.7286 9.47447 44.7286 9.09478 45.0135L0.561452 51.4135C0.201035 51.6828 0.048431 52.1495 0.179681 52.5797C0.311452 53.0099 0.698952 53.3115 1.14843 53.3333H2.2151V62.9333C2.2151 63.5224 2.6927 64 3.28176 64C3.87083 64 4.34843 63.5224 4.34843 62.9333V53.3333H15.0151V62.9333C15.0151 63.5224 15.4927 64 16.0818 64C16.6708 64 17.1484 63.5224 17.1484 62.9333V53.3333H18.2151C18.6932 53.3583 19.1292 53.062 19.2818 52.6078ZM9.68176 47.2L15.0151 51.2H4.34843L9.68176 47.2Z" fill="#5C3635"/>
<path d="M11.8151 56.5333H7.54845C6.95939 56.5333 6.48178 57.0109 6.48178 57.6V62.9333C6.48178 63.5224 6.95939 64 7.54845 64C8.13751 64 8.61511 63.5224 8.61511 62.9333V58.6667H10.7484V62.9333C10.7484 63.5224 11.2261 64 11.8151 64C12.4042 64 12.8818 63.5224 12.8818 62.9333V57.6C12.8818 57.0109 12.4042 56.5333 11.8151 56.5333Z" fill="#5C3635"/>
<path d="M49.1484 14.9333H61.9484C62.5375 14.9333 63.0151 14.4557 63.0151 13.8667V1.06667C63.0151 0.477604 62.5375 0 61.9484 0H49.1484C48.5594 0 48.0818 0.477604 48.0818 1.06667V13.8667C48.0818 14.4557 48.5594 14.9333 49.1484 14.9333ZM56.6151 2.13333V4.26667H54.4818V2.13333H56.6151ZM50.2151 2.13333H52.3484V5.33333C52.3484 5.9224 52.826 6.4 53.4151 6.4H57.6818C58.2708 6.4 58.7484 5.9224 58.7484 5.33333V2.13333H60.8818V12.8H50.2151V2.13333Z" fill="#5C3635"/>
<path d="M32.0818 10.6667C26.9604 10.6651 22.012 12.5182 18.151 15.8828L18.087 15.936C13.4271 19.9729 10.7495 25.8344 10.7484 32C10.7484 32.5891 11.226 33.0667 11.8151 33.0667C12.4042 33.0667 12.8818 32.5891 12.8818 32C12.899 26.7479 15.0745 21.7344 18.8979 18.1334L23.8365 21.0985L26.3537 25.2906L21.9375 27.936C21.688 28.0854 21.5099 28.3307 21.4453 28.6151C21.3813 28.899 21.4354 29.1974 21.5964 29.4401L25.863 35.8401C26.0714 36.1177 26.4016 36.2771 26.7484 36.2667C26.9578 36.2693 27.163 36.2057 27.3349 36.0854C27.8219 35.7599 27.9552 35.1026 27.6339 34.6136L23.9854 29.1412L28.3589 26.5172C28.8656 26.2167 29.0328 25.5625 28.7323 25.0563L25.5323 19.7229C25.4412 19.5688 25.313 19.4406 25.1589 19.3495L20.6255 16.6292C25.2932 13.0844 31.3401 11.9026 36.999 13.4292L34.7912 15.0401L31.7401 16.0531C31.462 16.1469 31.2349 16.3505 31.1115 16.6172C30.9886 16.8834 30.9807 17.1891 31.0896 17.4615L33.2229 22.7948C33.4063 23.2834 33.9162 23.5677 34.4281 23.4667L37.1162 22.9334L33.3511 28.2026C33.0453 28.6255 33.0901 29.2078 33.4578 29.5787L36.6578 32.7787C37.0037 33.124 37.5396 33.1896 37.9589 32.9386L42.8766 29.9839L44.7854 30.624L43.8151 38.2719C43.7792 38.5552 43.8578 38.8412 44.0344 39.0656C44.2109 39.2901 44.4698 39.4349 44.7537 39.4667H44.8818C45.424 39.4708 45.8833 39.0667 45.9484 38.5281L47.0151 29.9948C47.0776 29.4927 46.7792 29.0162 46.3005 28.8531L43.1005 27.7865C42.8052 27.688 42.4818 27.7229 42.2151 27.8828L37.5964 30.6563L35.6229 28.6828L40.4229 21.9521C40.6734 21.5974 40.6839 21.1266 40.45 20.761C40.2156 20.3953 39.7833 20.2084 39.3563 20.288L34.8979 21.1839L33.5109 17.7172L35.6443 17.0136C35.7443 16.9787 35.8375 16.9281 35.9219 16.8641L39.5484 14.2932C48.15 17.899 52.899 27.1813 50.7912 36.2667H49.1484C48.5594 36.2667 48.0818 36.7443 48.0818 37.3333C48.0818 37.9224 48.5594 38.4 49.1484 38.4H50.2151C49.2604 41.1026 47.7156 43.5589 45.6922 45.5896L42.7484 44.1386V41.6C42.7484 41.2641 42.5901 40.9479 42.3219 40.7469L38.0552 37.5469C37.7792 37.3422 37.4219 37.2823 37.0948 37.3865C36.7698 37.4875 36.5125 37.737 36.4016 38.0589L34.2682 44.4589C34.1656 44.7714 34.213 45.1136 34.3964 45.3865L36.3484 48.3948L36.6682 50.6136C32.9662 51.5589 29.0646 51.3578 25.4792 50.0375L30.1724 49.0667C30.6172 48.9698 30.9511 48.6011 31.0042 48.1495L32.0708 39.6162C32.1234 39.2781 32.0104 38.9359 31.7677 38.6953C31.525 38.4542 31.1818 38.3448 30.8443 38.4L24.4443 39.4667C23.8552 39.5609 23.4542 40.1151 23.5484 40.7042C23.6427 41.2932 24.1964 41.6943 24.7854 41.6L29.7776 40.7682L28.9886 47.1682L22.3432 48.5974C18.775 46.4922 15.9833 43.2891 14.3854 39.4667C14.2771 39.2047 14.0688 38.9964 13.8068 38.8886C13.5443 38.7802 13.25 38.7813 12.9885 38.8906C12.7255 39.0011 12.5177 39.212 12.4115 39.4766C12.3052 39.7412 12.3094 40.037 12.4229 40.2984C15.1302 46.6745 20.7646 51.3391 27.5333 52.8089C34.3026 54.2781 41.3636 52.3698 46.4708 47.6906L46.5563 47.6162C52.9667 41.65 55.0797 32.3724 51.8854 24.2188C48.6912 16.0646 40.8386 10.6912 32.0818 10.6667ZM38.4818 47.8505C38.4636 47.6927 38.4047 47.5417 38.3109 47.4136L36.4656 44.6401L37.9698 40.1386L40.6151 42.1333V44.8C40.6162 45.2016 40.8432 45.5688 41.2016 45.7495L43.9005 47.1042C42.349 48.3203 40.6182 49.288 38.7698 49.9734L38.4818 47.8505Z" fill="#5C3635"/>
<path d="M1.60678 38.4H1.78855C2.36875 38.2968 2.75573 37.7432 2.65209 37.1625C2.5349 36.4802 2.43907 35.7974 2.375 35.1255C2.35625 34.8359 2.22084 34.5671 1.99948 34.3796C1.77813 34.1927 1.49011 34.1036 1.20157 34.1333C0.619796 34.1948 0.196359 34.7135 0.252088 35.2958C0.327088 36.0213 0.422921 36.7573 0.551046 37.4291C0.600525 37.9765 1.0573 38.3968 1.60678 38.4Z" fill="#5C3635"/>
<path d="M4.03907 42.2719C3.83595 41.7183 3.22188 41.4339 2.66824 41.6375C2.11459 41.8407 1.83022 42.4542 2.03386 43.0078C2.27917 43.6907 2.5672 44.3735 2.86563 45.0453C3.03751 45.4276 3.4172 45.674 3.83647 45.6745C3.98647 45.6771 4.13542 45.6485 4.27344 45.5896C4.53334 45.4729 4.73594 45.2578 4.83594 44.9912C4.93647 44.725 4.92605 44.4292 4.80678 44.1709C4.52969 43.5521 4.27345 42.9016 4.03907 42.2719Z" fill="#5C3635"/>
<path d="M2.66302 22.4C2.78281 22.4422 2.90937 22.4635 3.03645 22.464C3.48541 22.464 3.88645 22.1823 4.03906 21.7599C4.26301 21.1307 4.52968 20.4906 4.80676 19.8505C5.00312 19.4979 4.98333 19.0646 4.75572 18.7307C4.52812 18.3974 4.13176 18.2208 3.73176 18.275C3.33176 18.3291 2.99635 18.6047 2.86562 18.9864C2.56718 19.6588 2.27916 20.3411 2.03385 21.0239C1.93385 21.2901 1.94374 21.5843 2.06197 21.8427C2.1802 22.101 2.39635 22.3015 2.66302 22.4Z" fill="#5C3635"/>
<path d="M1.20155 29.8667H1.31874C1.86874 29.8693 2.33072 29.4537 2.3854 28.9068C2.44947 28.2349 2.54582 27.5521 2.66301 26.8693C2.76301 26.2802 2.36665 25.7214 1.77759 25.6214C1.18853 25.5214 0.629676 25.9177 0.529676 26.5068C0.401551 27.2318 0.305717 27.9683 0.231238 28.6401C0.185405 28.9334 0.264571 29.2323 0.448426 29.4651C0.632801 29.698 0.905717 29.8433 1.20155 29.8667Z" fill="#5C3635"/>
<path d="M21.8099 60.0427C21.1698 59.8078 20.5297 59.5521 19.9005 59.2745C19.5474 59.0786 19.1141 59.0984 18.7807 59.326C18.4469 59.5531 18.2709 59.95 18.325 60.35C18.3792 60.75 18.6542 61.0854 19.0365 61.2161C19.6979 61.5146 20.3912 61.7922 21.0735 62.0479C21.1938 62.0901 21.3198 62.1114 21.4469 62.112C21.9646 62.1114 22.4073 61.739 22.4964 61.2297C22.586 60.7198 22.2964 60.2192 21.8099 60.0427Z" fill="#5C3635"/>
<path d="M28.9886 61.7067C28.3162 61.6427 27.6339 61.5468 26.9511 61.4291C26.362 61.3291 25.8032 61.7255 25.7032 62.3145C25.6026 62.9036 25.9995 63.4625 26.5886 63.5625C27.3136 63.6906 28.0495 63.7864 28.7219 63.8614H28.8818C29.4709 63.8906 29.9724 63.4369 30.0016 62.8479C30.0313 62.2588 29.5776 61.7573 28.9886 61.7281V61.7067Z" fill="#5C3635"/>
<path d="M26.7484 2.59223H26.9297C27.6125 2.47452 28.2948 2.37869 28.9672 2.31463C29.2505 2.28754 29.5115 2.14848 29.6917 1.92817C29.8719 1.70785 29.9568 1.42452 29.9271 1.14119C29.8974 0.859938 29.7573 0.601605 29.537 0.42348C29.3172 0.245355 29.0354 0.162022 28.7536 0.19223C28.0281 0.266709 27.2922 0.362542 26.6203 0.490667C26.0313 0.540667 25.5943 1.0589 25.6443 1.64796C25.6943 2.23702 26.2125 2.674 26.8016 2.624L26.7484 2.59223Z" fill="#5C3635"/>
<path d="M19.4734 4.82135C19.6208 4.81927 19.7661 4.78646 19.9005 4.72552C20.5297 4.44791 21.1698 4.19218 21.8099 3.95729C22.3635 3.75416 22.6474 3.14062 22.4442 2.58646C22.2411 2.03281 21.6276 1.74895 21.0734 1.95208C20.3911 2.20781 19.6979 2.48541 19.0364 2.78385C18.5802 2.99166 18.3307 3.48854 18.4354 3.97864C18.5406 4.46823 18.9729 4.81927 19.4734 4.82135Z" fill="#5C3635"/>
<path d="M42.3537 3.95729C42.9938 4.19218 43.6339 4.44791 44.263 4.72552C44.3969 4.78646 44.5422 4.81927 44.6896 4.82135C45.1906 4.81927 45.6224 4.46823 45.7276 3.97864C45.8328 3.48854 45.5828 2.99166 45.1271 2.78385C44.4656 2.48541 43.7724 2.20781 43.0896 1.95208C42.536 1.74895 41.9224 2.03281 41.7188 2.58646C41.5156 3.14062 41.8 3.75416 42.3537 3.95729Z" fill="#5C3635"/>
<path d="M35.175 2.29326C35.8469 2.35732 36.5297 2.45315 37.2125 2.57086H37.3938C37.9828 2.62086 38.501 2.18388 38.551 1.59482C38.601 1.00576 38.1641 0.487529 37.575 0.437529C36.8495 0.309404 36.1135 0.21357 35.4417 0.138571C34.8526 0.0797164 34.3271 0.509404 34.2682 1.09847C34.2094 1.68805 34.6391 2.21305 35.2281 2.2719L35.175 2.29326Z" fill="#5C3635"/>
<path d="M37.2125 61.4291C36.5297 61.5468 35.8469 61.6427 35.175 61.7067C34.586 61.7359 34.1323 62.2375 34.1615 62.8265C34.1912 63.4156 34.6927 63.8692 35.2818 63.8401H35.3886C36.1136 63.7651 36.8495 63.6692 37.5219 63.5411C38.111 63.4411 38.5073 62.8822 38.4068 62.2932C38.3068 61.7041 37.748 61.3078 37.1589 61.4078L37.2125 61.4291Z" fill="#5C3635"/>
<path d="M44.263 59.2745C43.6339 59.5521 42.9938 59.8078 42.3537 60.0427C41.861 60.2208 41.5703 60.7307 41.6683 61.2458C41.7667 61.7604 42.2245 62.1276 42.7485 62.112C42.8755 62.1114 43.0016 62.0901 43.1219 62.0479C43.8042 61.7922 44.4979 61.5146 45.1589 61.2161C45.5412 61.0854 45.8162 60.75 45.8703 60.35C45.9245 59.95 45.7485 59.5531 45.4146 59.326C45.0813 59.0984 44.6479 59.0786 44.2948 59.2745H44.263Z" fill="#5C3635"/>
<path d="M61.5109 26.8693C61.6281 27.5521 61.7245 28.235 61.7885 28.9068C61.8432 29.4537 62.3052 29.8693 62.8552 29.8667H63.0151C63.5969 29.8053 64.0203 29.2865 63.9646 28.7042C63.8896 27.9787 63.7937 27.2428 63.6656 26.5709C63.5656 25.9818 63.0067 25.5855 62.4177 25.6855C61.8286 25.7855 61.4323 26.3443 61.5323 26.9334L61.5109 26.8693Z" fill="#5C3635"/>
<path d="M62.1297 20.9922C61.8844 20.3094 61.5963 19.6266 61.2979 18.9547C61.1666 18.5729 60.8317 18.2974 60.4317 18.2432C60.0312 18.1891 59.6349 18.3656 59.4073 18.699C59.1797 19.0323 59.1599 19.4656 59.3562 19.8188C59.6338 20.4589 59.9005 21.0984 60.1245 21.7281C60.2771 22.1505 60.6781 22.4318 61.1271 22.4318C61.2541 22.4318 61.3802 22.4099 61.5005 22.3682C61.7666 22.2698 61.9833 22.0693 62.101 21.8109C62.2193 21.5526 62.2297 21.2578 62.1297 20.9922Z" fill="#5C3635"/>
<path d="M51.2818 54.912C50.7588 55.3495 50.2151 55.7761 49.6604 56.1813C49.1885 56.5276 49.0838 57.1891 49.4255 57.6641C49.625 57.9438 49.9463 58.1104 50.2896 58.112C50.512 58.1104 50.7281 58.0396 50.9083 57.9094C51.5057 57.4719 52.0922 57.0136 52.6578 56.5438C53.1083 56.1641 53.1656 55.4906 52.7854 55.0401C52.4057 54.5896 51.7323 54.5318 51.2818 54.912Z" fill="#5C3635"/>
<path d="M56.263 49.5256C55.8578 50.0803 55.4313 50.5922 54.9938 51.1469C54.7229 51.4631 54.6615 51.9079 54.8354 52.2865C55.0094 52.6646 55.388 52.9068 55.8042 52.9068C56.1214 52.9074 56.4224 52.7667 56.6255 52.523C57.0948 51.9683 57.5537 51.3813 57.9912 50.7839C58.1573 50.5537 58.225 50.2667 58.1792 49.9865C58.1328 49.7058 57.9771 49.4558 57.7458 49.2907C57.2708 48.949 56.6094 49.0537 56.263 49.5256Z" fill="#5C3635"/>
<path d="M12.2521 9.34374C12.5031 9.34166 12.7448 9.25103 12.9349 9.08801C13.4578 8.65051 14.0016 8.22395 14.5563 7.81874C15.0281 7.47239 15.1328 6.81093 14.7912 6.33593C14.4479 5.86093 13.7859 5.75155 13.3083 6.09062C12.7109 6.52812 12.1245 6.98645 11.5589 7.45624C11.2109 7.74426 11.0823 8.22083 11.238 8.64531C11.3943 9.06926 11.8005 9.34947 12.2521 9.34374Z" fill="#5C3635"/>
<path d="M7.03646 14.9333C7.3776 14.9344 7.69896 14.7719 7.90052 14.4958C8.30573 13.9411 8.73229 13.4292 9.16979 12.8745C9.55573 12.4271 9.50521 11.751 9.05781 11.3651C8.60989 10.9797 7.93437 11.0297 7.54844 11.4771C7.07916 12.0318 6.62031 12.6187 6.18281 13.2266C5.84375 13.7042 5.95312 14.3661 6.42812 14.7094C6.60312 14.8453 6.8151 14.9234 7.03646 14.9333Z" fill="#5C3635"/>
<path d="M61.5005 41.6C61.2333 41.5005 60.937 41.5125 60.6787 41.6328C60.4203 41.7526 60.2203 41.9713 60.1245 42.2401C59.8896 42.8692 59.6339 43.5197 59.3563 44.1385C59.2375 44.3973 59.2271 44.6927 59.3271 44.9593C59.4276 45.2255 59.6297 45.4411 59.8896 45.5572C60.0276 45.6161 60.1771 45.6453 60.3271 45.6427C60.7464 45.6416 61.1261 45.3958 61.2979 45.0135C61.5964 44.3411 61.8844 43.6588 62.1297 42.976C62.2297 42.7098 62.2193 42.4156 62.1011 42.1572C61.9833 41.8989 61.7667 41.6984 61.5005 41.6Z" fill="#5C3635"/>
<path d="M63.0151 34.1333C62.7334 34.1036 62.4516 34.187 62.2318 34.3646C62.0115 34.5427 61.8714 34.801 61.8417 35.0828C61.7776 35.7547 61.6818 36.4375 61.5646 37.1198C61.5011 37.3974 61.5506 37.6885 61.7032 37.9292C61.8552 38.1693 62.0969 38.3391 62.375 38.4H62.5563C63.0813 38.4078 63.5339 38.0323 63.6229 37.5146C63.7511 36.7896 63.8469 36.0531 63.9219 35.3813C63.974 35.0948 63.9063 34.799 63.7354 34.5635C63.5641 34.3276 63.3037 34.1724 63.0151 34.1333Z" fill="#5C3635"/>
</g>
<defs>
<clipPath id="clip0">
<rect width="64" height="64" fill="white"/>
</clipPath>
</defs>
</svg>
